<svg width="42" height="42" viewBox="0 0 42 42" fill="none" xmlns="http://www.w3.org/2000/svg">
<path d="M12.9088 16.6717C11.2623 15.0591 10.1276 12.997 9.64647 10.7432C9.20557 8.51792 9.36571 5.86558 11.8085 4.22455C11.8085 4.22455 22.1282 -3.07903 31.1776 4.22455C31.1776 4.22455 42.131 10.9716 40.4642 28.5929C40.4642 28.5929 40.3061 40.7385 27.9222 40.8976C27.9222 40.8976 21.8109 42.4052 21.1752 32.4038C21.2355 31.4726 21.2345 30.5374 21.1703 29.6061C21.0483 27.7198 20.5501 25.8768 19.7051 24.1859C18.8602 22.4949 17.6854 20.9901 16.2501 19.76C15.0968 18.7741 13.9822 17.7439 12.9088 16.6717Z" fill="#009EFF"/>
<path d="M12.9088 16.6717C11.2623 15.0591 10.1276 12.997 9.64647 10.7432C9.20557 8.51792 9.36571 5.86558 11.8085 4.22455C11.8085 4.22455 22.1282 -3.07903 31.1776 4.22455C31.1776 4.22455 42.131 10.9716 40.4642 28.5929C40.4642 28.5929 40.3061 40.7385 27.9222 40.8976C27.9222 40.8976 21.8109 42.4052 21.1752 32.4038C21.2355 31.4726 21.2345 30.5374 21.1703 29.6061C21.0483 27.7198 20.5501 25.8768 19.7051 24.1859C18.8602 22.4949 17.6854 20.9901 16.2501 19.76C15.0968 18.7741 13.9822 17.7439 12.9088 16.6717Z" fill="#009EFF"/>
<path d="M12.9088 16.6717C11.2623 15.0591 10.1276 12.997 9.64647 10.7432C9.20557 8.51792 9.36571 5.86558 11.8085 4.22455C11.8085 4.22455 22.1282 -3.07903 31.1776 4.22455C31.1776 4.22455 42.131 10.9716 40.4642 28.5929C40.4642 28.5929 40.3061 40.7385 27.9222 40.8976C27.9222 40.8976 21.8109 42.4052 21.1752 32.4038C21.2355 31.4726 21.2345 30.5374 21.1703 29.6061C21.0483 27.7198 20.5501 25.8768 19.7051 24.1859C18.8602 22.4949 17.6854 20.9901 16.2501 19.76C15.0968 18.7741 13.9822 17.7439 12.9088 16.6717V16.6717Z" stroke="black" stroke-width="0.5" stroke-miterlimit="10"/>
<path d="M21.8505 14.5039C21.8505 14.5039 17.9911 16.0777 14.6814 14.9339" stroke="black" stroke-width="0.5" stroke-linecap="round" stroke-linejoin="round"/>
<path d="M27.2083 28.753C27.2083 28.753 20.3812 27.9592 17.6824 24.9826C17.6824 24.9826 14.4113 21.2864 7.95885 24.9826L1.2583 27.2929" stroke="black" stroke-width="0.5" stroke-linecap="round" stroke-linejoin="round"/>
<path d="M23.6306 19.0684C23.203 19.4378 22.9096 19.9383 22.7962 20.4919C22.663 21.1292 22.7379 21.7924 23.0098 22.384C23.3439 23.161 23.7858 24.9385 22.7092 27.7619" stroke="black" stroke-width="0.5" stroke-linecap="round" stroke-linejoin="round"/>
<path d="M1.2583 27.2927L7.95884 24.9824C7.95884 24.9824 13.5146 22.7601 14.3094 19.3475C14.3094 19.3475 13.9911 13.3934 16.3726 12.123" stroke="black" stroke-width="0.5" stroke-linecap="round" stroke-linejoin="round"/>
</svg>
