<svg width="42" height="42" viewBox="0 0 42 42" fill="none" xmlns="http://www.w3.org/2000/svg">
<path d="M37.8321 6.24975C36.8968 4.88753 35.6181 3.7966 34.1256 3.08741C32.6331 2.37821 30.9797 2.07593 29.3328 2.21115C25.4593 2.65102 24.4507 4.43871 20.9889 4.77949C17.5279 4.43871 16.5176 2.65102 12.645 2.21115C10.9981 2.07593 9.34469 2.37821 7.85217 3.08741C6.35965 3.7966 5.08099 4.88753 4.14562 6.24975C1.9237 9.64306 2.41111 14.7121 5.60542 18.5904C6.30306 19.4102 6.71183 20.4366 6.76875 21.5116C6.95968 26.4428 7.89824 40.3165 12.3985 41.2559C15.8707 41.9809 14.0339 25.3874 20.9889 25.6025C27.943 25.3874 26.1078 41.9801 29.5793 41.2559C34.0795 40.3165 35.0173 26.4428 35.209 21.5116C35.2659 20.4366 35.6747 19.4102 36.3723 18.5904C39.5666 14.7121 40.054 9.64306 37.8321 6.24975Z" fill="#DFECFF"/>
<path d="M37.8327 6.25008C36.824 3.99755 27.7833 0.0572298 29.3333 2.21148C31.7985 5.637 32.7226 12.0651 31.9572 19.0668C31.2982 25.0832 27.5456 38.3028 27.5456 38.3028C27.2516 40.1009 28.3271 41.6928 29.0199 41.5825C30.9333 41.2788 35.4134 35.4492 35.2096 21.5119C35.2395 20.4313 35.6514 19.3964 36.3721 18.5907C37.7599 16.8835 38.634 14.8171 38.8926 12.6323C39.1512 10.4474 38.7836 8.23406 37.8327 6.25008Z" fill="#B9D5FF"/>
<path d="M37.8321 6.24976C36.8968 4.88753 35.6181 3.7966 34.1256 3.08741C32.6331 2.37821 30.9797 2.07593 29.3328 2.21115C25.4593 2.65102 24.4507 4.43871 20.9889 4.77949C17.5279 4.43871 16.5176 2.65102 12.645 2.21115C10.9981 2.07593 9.34469 2.37821 7.85217 3.08741C6.35965 3.7966 5.08099 4.88753 4.14562 6.24976C1.9237 9.64306 2.41111 14.7121 5.60542 18.5904C6.30306 19.4102 6.71183 20.4366 6.76875 21.5116C6.95968 26.4428 7.89824 40.3165 12.3985 41.2559C15.8707 41.9809 14.0339 25.3874 20.9889 25.6025C27.943 25.3874 26.1078 41.9801 29.5793 41.2559C34.0795 40.3165 35.0173 26.4428 35.209 21.5116C35.2659 20.4366 35.6747 19.4102 36.3723 18.5904C39.5666 14.7121 40.054 9.64306 37.8321 6.24976V6.24976Z" stroke="black" stroke-width="0.5" stroke-miterlimit="10"/>
</svg>
