<svg width="45" height="45" viewBox="0 0 45 45" fill="none" xmlns="http://www.w3.org/2000/svg">
<path d="M43.8235 22.4995C43.8235 26.6295 34.271 36.2495 22.4898 36.2495C10.7073 36.2495 1.15601 27.8107 1.15601 22.4995C1.15601 18.357 43.8235 18.357 43.8235 22.4995Z" fill="#E1E8ED"/>
<path d="M43.8235 22.5H1.15601C1.15601 18.3588 10.7085 8.75 22.4898 8.75C34.271 8.75 43.8235 18.3575 43.8235 22.5Z" fill="#292F33"/>
<path d="M42.2713 22.5005C42.2713 26.1305 33.4125 34.5842 22.4888 34.5842C11.5638 34.5842 2.70752 27.1655 2.70752 22.5005C2.70752 18.8605 11.5638 10.418 22.4888 10.418C33.4125 10.4167 42.2713 18.8605 42.2713 22.5005Z" fill="#F5F8FA"/>
<path d="M22.5 33.0727C28.339 33.0727 33.0725 28.3393 33.0725 22.5002C33.0725 16.6612 28.339 11.9277 22.5 11.9277C16.661 11.9277 11.9275 16.6612 11.9275 22.5002C11.9275 28.3393 16.661 33.0727 22.5 33.0727Z" fill="#61B2E4"/>
<path d="M22.5 28.3852C25.7502 28.3852 28.385 25.7504 28.385 22.5002C28.385 19.25 25.7502 16.6152 22.5 16.6152C19.2498 16.6152 16.615 19.25 16.615 22.5002C16.615 25.7504 19.2498 28.3852 22.5 28.3852Z" fill="#292F33"/>
<path d="M18.7288 21.25C20.1095 21.25 21.2288 20.1307 21.2288 18.75C21.2288 17.3693 20.1095 16.25 18.7288 16.25C17.348 16.25 16.2288 17.3693 16.2288 18.75C16.2288 20.1307 17.348 21.25 18.7288 21.25Z" fill="#F5F8FA"/>
</svg>
