<svg width="45" height="45" viewBox="0 0 45 45" fill="none" xmlns="http://www.w3.org/2000/svg">
<path d="M45 40C45 41.3261 44.4732 42.5979 43.5355 43.5355C42.5979 44.4732 41.3261 45 40 45H5C3.67392 45 2.40215 44.4732 1.46447 43.5355C0.526784 42.5979 0 41.3261 0 40V5C0 3.67392 0.526784 2.40215 1.46447 1.46447C2.40215 0.526784 3.67392 0 5 0L40 0C41.3261 0 42.5979 0.526784 43.5355 1.46447C44.4732 2.40215 45 3.67392 45 5V40Z" fill="#009EFF"/>
<path d="M18.0388 30.8638C16.1475 30.7887 13.3225 31.4513 11.1163 34.2213C10.6777 33.9802 10.1729 33.8877 9.67733 33.9577C9.18181 34.0276 8.72231 34.2563 8.36767 34.6094C8.01304 34.9625 7.78236 35.421 7.71022 35.9162C7.63808 36.4114 7.72835 36.9167 7.9675 37.3563C8.5025 38.3375 9.605 39.4125 11.0975 39.4775C11.1463 39.48 11.1963 39.4812 11.2463 39.4812C12.1375 39.4812 13.3663 39.1225 14.425 37.5325C15.9425 35.2562 17.86 35.4688 18.1063 35.505C18.7513 35.63 19.3838 35.465 19.8813 35.1075C19.185 33.915 19.4513 32.0575 18.0388 30.8638ZM35.8975 34.2038C35.5543 34.0161 35.1691 33.9182 34.7779 33.9193C34.3868 33.9204 34.0022 34.0204 33.66 34.21C31.5375 31.55 28.8488 30.8463 26.9638 30.8625C25.52 32.0813 25.825 33.9863 25.0713 35.1763C25.5486 35.4737 26.1163 35.5912 26.6725 35.5075C26.8888 35.4725 28.8275 35.235 30.3588 37.5338C31.4188 39.1225 32.6475 39.4825 33.5388 39.4825C33.59 39.4825 33.6388 39.4813 33.6875 39.4788C35.1788 39.4125 36.2825 38.3387 36.8175 37.3575C37.1122 36.817 37.1808 36.1817 37.0084 35.5908C36.836 34.9998 36.4366 34.5011 35.8975 34.2038ZM35.075 23.675C34.7723 23.3723 34.375 23.1822 33.9493 23.1365C33.5236 23.0908 33.0951 23.1922 32.735 23.4237C32.56 23.3775 32.09 23.19 31.325 22.425C28.7863 19.8863 26.205 18.8513 24.4925 18.4263C26.1775 17.8638 27.5613 16.6075 28.35 14.9788C28.8041 14.925 29.2228 14.7066 29.5268 14.365C29.8309 14.0234 29.9992 13.5823 30 13.125C30 12.425 29.6125 11.8225 29.0438 11.5C28.8575 7.87875 26.0038 5 22.5 5C18.9963 5 16.1425 7.87875 15.9563 11.5C15.3875 11.8225 15 12.425 15 13.125C15 14.0837 15.7213 14.865 16.6488 14.9775C17.4375 16.6063 18.8225 17.8625 20.5075 18.425C18.7938 18.85 16.2125 19.885 13.675 22.4237C12.91 23.1887 12.44 23.3763 12.2663 23.4225C11.8769 23.1755 11.4102 23.0804 10.9552 23.1554C10.5003 23.2304 10.0888 23.4702 9.79926 23.8291C9.50974 24.188 9.36241 24.6409 9.38537 25.1014C9.40833 25.5619 9.59997 25.9979 9.92375 26.3263C9.9825 26.3863 10.8138 27.19 12.2113 27.19C13.2813 27.19 14.6838 26.7175 16.325 25.0763C16.835 24.5663 17.3363 24.1625 17.8275 23.8025C17.6787 24.3966 17.6007 25.0063 17.595 25.6188C17.5963 28.6463 19.7913 28.75 22.5 28.75C25.2075 28.75 27.4038 28.6462 27.4038 25.6175C27.4038 25.0362 27.3225 24.4188 27.1713 23.8013C27.6638 24.1613 28.1638 24.565 28.6738 25.075C30.3138 26.7175 31.7163 27.1887 32.7875 27.1887C34.1838 27.1887 35.015 26.385 35.075 26.325C35.2492 26.1511 35.3873 25.9445 35.4816 25.7172C35.5759 25.4898 35.6244 25.2461 35.6244 25C35.6244 24.7539 35.5759 24.5102 35.4816 24.2828C35.3873 24.0555 35.2492 23.8489 35.075 23.675Z" fill="white"/>
</svg>
