<svg width="42" height="42" viewBox="0 0 42 42" fill="none" xmlns="http://www.w3.org/2000/svg">
<path d="M28.7291 22.4215L23.3333 16.706V3.49935C23.3333 2.88051 23.0875 2.28702 22.6499 1.84943C22.2123 1.41185 21.6188 1.16602 21 1.16602C20.3811 1.16602 19.7876 1.41185 19.3501 1.84943C18.9125 2.28702 18.6666 2.88051 18.6666 3.49935V16.706L13.2708 22.4227C13.1462 22.5166 13.0418 22.6346 12.9636 22.7696C12.8855 22.9047 12.8352 23.054 12.8157 23.2088C12.7963 23.3636 12.8081 23.5207 12.8505 23.6709C12.8928 23.8211 12.9649 23.9612 13.0624 24.083C13.1598 24.2048 13.2807 24.3059 13.418 24.3801C13.5552 24.4544 13.7059 24.5004 13.8612 24.5154C14.0165 24.5304 14.1732 24.5141 14.3221 24.4674C14.471 24.4208 14.609 24.3448 14.728 24.2438C14.7291 24.2438 18.6666 19.8327 21 19.8327C23.3333 19.8327 27.2708 24.2438 27.2708 24.2438C27.5136 24.4236 27.8167 24.5023 28.1163 24.4633C28.4159 24.4244 28.6887 24.2708 28.8775 24.0349C29.0663 23.799 29.1563 23.4992 29.1286 23.1983C29.101 22.8975 28.9578 22.619 28.7291 22.4215Z" fill="#79F0C4"/>
<path d="M28.9113 22.8952C28.7178 23.1366 28.4363 23.2914 28.1288 23.3256C27.8212 23.3597 27.5127 23.2704 27.2709 23.0772C27.2709 23.0772 23.3334 18.666 21.0001 18.666C18.6668 18.666 14.7293 23.0772 14.7293 23.0772C14.5225 23.2431 14.2652 23.3333 14.0001 23.3327C13.8251 23.3331 13.6522 23.2939 13.4945 23.2182C13.3367 23.1424 13.1981 23.032 13.0889 22.8952C13.0504 22.8462 13.0376 22.789 13.0073 22.7365C12.8997 22.9124 12.841 23.1139 12.8373 23.3201C12.8336 23.5263 12.885 23.7297 12.9862 23.9094C13.0874 24.089 13.2348 24.2384 13.413 24.3422C13.5912 24.4459 13.7939 24.5001 14.0001 24.4993C14.2556 24.4993 14.5134 24.4165 14.7281 24.2438C14.7293 24.2438 18.6668 19.8327 21.0001 19.8327C23.3334 19.8327 27.2709 24.2438 27.2709 24.2438C27.5127 24.437 27.8212 24.5264 28.1288 24.4922C28.4363 24.4581 28.7178 24.3033 28.9113 24.0618C29.0585 23.8757 29.1452 23.6489 29.1598 23.412C29.1744 23.1751 29.1162 22.9394 28.9929 22.7365C28.9626 22.789 28.9498 22.8473 28.9113 22.8952Z" fill="#59B3EA"/>
<path d="M15.5866 10.527C14.6405 7.42833 11.0588 6.52883 6.16115 13.0225C4.01215 15.8715 2.01365 20.7155 2.07898 25.549C2.14198 30.211 0.40948 33.4683 2.00315 37.904C2.74165 39.9597 9.14198 41.3002 13.8541 38.3893C15.827 37.1713 17.1115 35.7562 16.765 33.746C16.1968 30.449 16.1875 28.0958 16.6261 23.7663C17.1803 18.29 16.7101 14.209 15.5866 10.527Z" fill="#309ADB"/>
<path d="M15.5866 10.527C14.6405 7.42833 11.0588 6.52883 6.16115 13.0225C4.01215 15.8715 2.01365 20.7155 2.07898 25.549C2.14198 30.211 0.40948 33.4683 2.00315 37.904C3.80565 35.062 9.00315 38.1117 13.7165 35.2008C15.6893 33.9828 16.3765 31.0475 16.3321 29.7257C16.275 28.0177 16.38 26.2058 16.6273 23.7652C17.1803 18.29 16.7101 14.209 15.5866 10.527Z" fill="#59B3EA"/>
<path d="M25.6669 10.5879C25.7135 7.34803 29.1704 6.92337 34.369 11.7055C37.2659 14.3702 39.087 19.5887 40.0519 25.2202C41.0225 30.8855 40.5034 37.0992 39.913 38.666C39.1967 40.5654 33.6469 41.3424 29.7945 38.8049C27.3119 37.1704 25.7637 34.298 26.2595 30.9042C27.5767 21.894 25.4977 22.4482 25.6669 10.5879Z" fill="#309ADB"/>
<path d="M25.6666 10.588C25.7133 7.34819 29.1701 6.92352 34.3688 11.7057C37.2656 14.3704 39.0868 19.5889 40.0516 25.2204C41.0223 30.8857 40.5031 37.0993 39.9128 38.6662C39.5663 35.0624 35.616 37.0025 31.388 35.1312C30.1175 34.5689 29.6205 34.0509 29.7243 31.2497C29.8631 27.507 26.6933 28.6854 26.6933 26.1864C26.6945 21.5547 25.5336 19.8899 25.6666 10.588ZM23.0416 4.10252C22.965 4.10261 22.8893 4.08654 22.8193 4.05539C22.7494 4.02423 22.6868 3.97867 22.6356 3.92169C22.6216 3.90652 22.1176 3.39552 21 3.39552C19.8823 3.39552 19.3795 3.90535 19.3585 3.92752C19.2594 4.03149 19.1234 4.09242 18.9799 4.09722C18.8363 4.10202 18.6966 4.0503 18.5908 3.95319C18.4856 3.85687 18.4227 3.72296 18.4157 3.58053C18.4087 3.4381 18.4582 3.29867 18.5535 3.19252C18.6351 3.10152 19.397 2.30469 21 2.30469C22.603 2.30469 23.3648 3.10152 23.4476 3.19135C23.5182 3.26982 23.5645 3.36706 23.581 3.47131C23.5975 3.57555 23.5834 3.68234 23.5404 3.77875C23.4975 3.87515 23.4275 3.95704 23.339 4.0145C23.2504 4.07196 23.1472 4.10254 23.0416 4.10252ZM23.0416 7.60252C22.965 7.60261 22.8893 7.58654 22.8193 7.55539C22.7494 7.52423 22.6868 7.47867 22.6356 7.42169C22.6216 7.40652 22.1176 6.89552 21 6.89552C19.8823 6.89552 19.3795 7.40535 19.3585 7.42752C19.152 7.64335 18.809 7.65619 18.5908 7.45319C18.3726 7.25019 18.354 6.91419 18.5535 6.69252C18.6351 6.60152 19.397 5.80469 21 5.80469C22.603 5.80469 23.3648 6.60152 23.4476 6.69135C23.5182 6.76982 23.5645 6.86706 23.581 6.97131C23.5975 7.07555 23.5834 7.18234 23.5404 7.27875C23.4975 7.37515 23.4275 7.45704 23.339 7.5145C23.2504 7.57196 23.1472 7.60254 23.0416 7.60252ZM23.0416 11.1025C22.965 11.1026 22.8893 11.0865 22.8193 11.0554C22.7494 11.0242 22.6868 10.9787 22.6356 10.9217C22.6216 10.9065 22.1176 10.3955 21 10.3955C19.8823 10.3955 19.3795 10.9054 19.3585 10.9275C19.2594 11.0315 19.1234 11.0924 18.9799 11.0972C18.8363 11.102 18.6966 11.0503 18.5908 10.9532C18.4856 10.8569 18.4227 10.723 18.4157 10.5805C18.4087 10.4381 18.4582 10.2987 18.5535 10.1925C18.6351 10.1015 19.397 9.30469 21 9.30469C22.603 9.30469 23.3648 10.1015 23.4476 10.1914C23.5182 10.2698 23.5645 10.3671 23.581 10.4713C23.5975 10.5756 23.5834 10.6823 23.5404 10.7787C23.4975 10.8751 23.4275 10.957 23.339 11.0145C23.2504 11.072 23.1472 11.1025 23.0416 11.1025ZM23.0416 14.6025C22.965 14.6026 22.8893 14.5865 22.8193 14.5554C22.7494 14.5242 22.6868 14.4787 22.6356 14.4217C22.6216 14.4065 22.1176 13.8955 21 13.8955C19.8823 13.8955 19.3795 14.4054 19.3585 14.4275C19.152 14.6434 18.809 14.6562 18.5908 14.4532C18.3726 14.2502 18.354 13.9142 18.5535 13.6925C18.6351 13.6015 19.397 12.8047 21 12.8047C22.603 12.8047 23.3648 13.6015 23.4476 13.6914C23.5182 13.7698 23.5645 13.8671 23.581 13.9713C23.5975 14.0756 23.5834 14.1823 23.5404 14.2787C23.4975 14.3751 23.4275 14.457 23.339 14.5145C23.2504 14.572 23.1472 14.6025 23.0416 14.6025Z" fill="#59B3EA"/>
</svg>
