<svg width="45" height="45" viewBox="0 0 45 45" fill="none" xmlns="http://www.w3.org/2000/svg">
<path d="M24.2065 0.550781C16.6859 0.550781 9.7503 6.19899 8.30889 12.4195C7.98897 13.8019 7.62757 17.4145 7.62757 17.4145L4.17382 26.134C4.10374 26.2981 4.06877 26.4751 4.07116 26.6536C4.07116 27.3898 4.666 27.9881 5.40499 27.9881H7.62757V32.6203C7.62757 36.2344 10.5505 39.1608 14.1596 39.1608H16.7569V44.2345H26.4087V41.9705H30.3399V44.2345H34.4447V30.1657C38.3021 27.1324 40.782 22.418 40.782 17.1319C40.782 7.97297 33.364 0.550781 24.2065 0.550781ZM11.7057 20.7178C11.212 20.7178 10.7385 20.5217 10.3894 20.1727C10.0402 19.8237 9.844 19.3503 9.84382 18.8566C9.84493 18.3637 10.0416 17.8914 10.3907 17.5433C10.7398 17.1953 11.2128 17 11.7057 17.0004C12.1924 17.0099 12.656 17.2098 12.9968 17.5574C13.3377 17.9049 13.5286 18.3723 13.5286 18.8591C13.5286 19.3459 13.3377 19.8133 12.9968 20.1608C12.656 20.5084 12.1924 20.7083 11.7057 20.7178ZM26.408 32.8959H30.3392V35.0222H26.408V32.8959ZM26.408 29.8704H30.3392V31.9952H26.408V29.8704ZM26.408 35.9187H30.3392V38.0477H26.408V35.9187ZM26.408 38.9442H30.3392V41.0733H26.408V38.9442ZM26.408 26.8462H30.3631C30.3554 27.0023 30.3385 27.1556 30.3385 27.3152V28.9725H26.4073L26.408 26.8462ZM37.2903 14.5922C37.2903 15.7242 36.8466 16.7515 36.1259 17.5165C36.0651 18.2928 35.7933 19.0378 35.3398 19.6709C34.8864 20.304 34.2686 20.8012 33.5532 21.1088V21.1235C31.8115 22.1374 30.7702 23.8685 30.4538 25.9448H28.8437V21.1277C28.8542 19.6259 29.3267 18.6647 30.3167 18.0713C30.6673 17.873 30.9934 17.6345 31.2884 17.3604C32.0515 17.6324 32.6903 18.1717 33.0863 18.8784C33.1267 18.9467 33.184 19.0035 33.2528 19.0431C33.3215 19.0828 33.3993 19.104 33.4787 19.1048C33.5558 19.1052 33.6315 19.0848 33.698 19.0458C33.7502 19.0175 33.7962 18.9791 33.8333 18.9329C33.8705 18.8866 33.898 18.8335 33.9144 18.7764C33.9308 18.7194 33.9356 18.6597 33.9286 18.6008C33.9217 18.5419 33.903 18.485 33.8738 18.4334H33.8703C33.4228 17.6406 32.7334 17.0118 31.903 16.639C32.3136 16.0083 32.5414 15.2573 32.5308 14.3545C32.5308 14.3496 32.5365 14.3454 32.5365 14.3391C32.536 13.9407 32.4792 13.5445 32.3677 13.162C33.2835 12.9889 34.1181 12.5228 34.7457 11.8338C34.786 11.7902 34.8172 11.7391 34.8376 11.6833C34.8579 11.6275 34.8669 11.5683 34.8641 11.509C34.8613 11.4497 34.8467 11.3915 34.8212 11.3379C34.7956 11.2843 34.7597 11.2364 34.7155 11.1968C34.6278 11.1169 34.5119 11.0751 34.3934 11.0805C34.2749 11.0859 34.1634 11.1381 34.0833 11.2256C33.5443 11.8175 32.8138 12.2004 32.0204 12.307C31.6918 11.6959 31.22 11.1736 30.6453 10.7849C30.0705 10.3962 29.4101 10.1527 28.7206 10.0753C28.8118 9.32659 29.1512 8.63 29.6846 8.09672C29.7675 8.01198 29.8139 7.89815 29.8139 7.77961C29.8139 7.66107 29.7675 7.54724 29.6846 7.4625C29.5997 7.37774 29.4846 7.33014 29.3647 7.33014C29.2447 7.33014 29.1296 7.37774 29.0448 7.4625C28.3576 8.15083 27.9249 9.05237 27.8178 10.0191C26.9975 9.91567 26.2431 9.5166 25.6961 8.89668C25.149 8.27676 24.8469 7.47857 24.8464 6.6518C24.846 6.53328 24.7992 6.41962 24.716 6.33522C24.6328 6.25082 24.5198 6.20241 24.4013 6.20039C24.3418 6.20011 24.2829 6.21158 24.2278 6.23413C24.1728 6.25668 24.1227 6.28988 24.0805 6.33181C24.0383 6.37375 24.0048 6.4236 23.9819 6.47851C23.959 6.53342 23.9472 6.59231 23.9471 6.6518C23.9471 6.945 23.9752 7.22344 24.0315 7.49836C23.5761 7.89316 23.0236 8.15915 22.4309 8.26879C21.8383 8.37844 21.2272 8.32777 20.6607 8.12203L20.6501 8.11922C20.185 7.951 19.7628 7.68182 19.414 7.33102C19.3294 7.24694 19.2149 7.19977 19.0955 7.19977C18.9762 7.19977 18.8617 7.24694 18.777 7.33102C18.7349 7.37255 18.7015 7.42203 18.6787 7.47659C18.6559 7.53115 18.6441 7.58969 18.6441 7.64883C18.6441 7.70796 18.6559 7.76651 18.6787 7.82107C18.7015 7.87562 18.7349 7.92511 18.777 7.96664C19.1347 8.32468 19.5527 8.61695 20.0117 8.83008C19.9224 9.95156 19.2706 10.9155 18.3594 11.457C17.818 10.6301 17.0087 10.0146 16.0672 9.71391C15.9525 9.67749 15.8281 9.68779 15.7209 9.74255C15.6137 9.79731 15.5325 9.89212 15.4948 10.0064C15.4603 10.1202 15.4719 10.2429 15.527 10.3483C15.5821 10.4536 15.6763 10.5331 15.7894 10.5696C16.4812 10.7892 17.0846 11.2243 17.5114 11.8113C17.226 11.8885 16.9316 11.9275 16.636 11.9273H16.5819C15.4649 11.926 14.3916 12.3616 13.5915 13.1409C13.548 13.1814 13.5132 13.2303 13.4892 13.2847C13.4651 13.339 13.4524 13.3977 13.4516 13.4571C13.4509 13.5165 13.4623 13.5755 13.485 13.6304C13.5077 13.6853 13.5413 13.735 13.5837 13.7766C13.6244 13.8187 13.673 13.8525 13.7267 13.8758C13.7804 13.8991 13.8383 13.9115 13.8968 13.9124C13.9554 13.9132 14.0136 13.9025 14.068 13.8807C14.1223 13.859 14.1719 13.8267 14.2137 13.7857C14.8473 13.1682 15.6979 12.8241 16.5826 12.8273H16.6374C17.6737 12.8269 18.6748 12.4516 19.4559 11.7706C20.237 11.0897 20.7453 10.1491 20.8871 9.12258C21.4786 9.25351 22.0911 9.25786 22.6844 9.13535C23.2777 9.01284 23.8383 8.76623 24.3296 8.41172C24.6063 9.03244 25.0278 9.57782 25.5587 10.0022C25.0374 10.6421 24.7139 11.4201 24.6277 12.2409C23.7 12.087 22.7474 12.2445 21.9186 12.6888C21.813 12.745 21.7341 12.8407 21.699 12.955C21.664 13.0692 21.6757 13.1928 21.7315 13.2984C21.7711 13.3701 21.8291 13.4299 21.8996 13.4716C21.9701 13.5133 22.0505 13.5353 22.1323 13.5354C22.2062 13.5354 22.273 13.5192 22.3376 13.4813C22.8276 13.2213 23.3735 13.0844 23.9281 13.0826C24.1665 13.0826 24.402 13.1086 24.627 13.1564C24.7255 14.0677 25.1192 14.9599 25.7963 15.6687C25.838 15.7124 25.888 15.7472 25.9435 15.771C25.999 15.7948 26.0587 15.8071 26.119 15.8072C26.2356 15.8069 26.3478 15.7627 26.4333 15.6834C26.4768 15.6431 26.5117 15.5944 26.536 15.5404C26.5603 15.4863 26.5735 15.4279 26.5748 15.3686C26.5761 15.3093 26.5655 15.2504 26.5436 15.1953C26.5218 15.1402 26.489 15.09 26.4474 15.0478H26.4439C25.8612 14.4356 25.5258 13.6293 25.5024 12.7845C25.5024 12.7725 25.5059 12.7634 25.5024 12.75V12.7008C25.5024 11.9063 25.7766 11.1216 26.3201 10.4909C26.9166 10.789 27.5743 10.944 28.2411 10.9437H28.2481C29.1452 10.9459 30.0049 11.3029 30.6396 11.9369C31.2743 12.5708 31.6324 13.4301 31.6358 14.3271C31.2787 14.2327 30.911 14.185 30.5417 14.1851C30.0059 14.1851 29.4631 14.2828 28.9393 14.4994C28.8846 14.5214 28.8348 14.554 28.7928 14.5952C28.7507 14.6365 28.7171 14.6856 28.6941 14.7399C28.671 14.7941 28.6588 14.8523 28.6582 14.9113C28.6577 14.9702 28.6687 15.0287 28.6907 15.0833C28.7128 15.138 28.7453 15.1878 28.7866 15.2298C28.8279 15.2719 28.877 15.3055 28.9312 15.3285C28.9854 15.3516 29.0437 15.3638 29.1026 15.3644C29.1615 15.3649 29.22 15.3539 29.2747 15.3319C29.6775 15.1689 30.1078 15.0845 30.5424 15.083C30.882 15.083 31.2181 15.1343 31.5338 15.2327C31.4356 15.7084 31.207 16.1473 30.8736 16.5005C30.8468 16.5233 30.8234 16.5498 30.804 16.5792C30.5183 16.8537 30.2014 17.0937 29.8597 17.2943C28.5575 18.0551 27.9331 19.4346 27.9458 21.1249V25.942H26.4101V21.3619C26.4101 19.6793 25.3555 18.0839 24.0273 17.5165C23.3937 17.2704 22.7328 16.8584 22.2512 16.3198C21.5451 16.8021 20.71 17.0604 19.8549 17.0609C19.0011 17.0625 18.1666 16.8069 17.4601 16.3275C16.7545 16.7903 15.9287 17.0363 15.0849 17.0348C14.5125 17.0349 13.9456 16.9222 13.4168 16.7032C12.8879 16.4841 12.4074 16.163 12.0027 15.7581C11.5979 15.3533 11.277 14.8727 11.0581 14.3437C10.8392 13.8148 10.7267 13.2479 10.7269 12.6755C10.7262 11.8217 10.9766 10.9867 11.447 10.2742C11.9173 9.56167 12.5868 9.00323 13.3721 8.66836C13.5799 7.71748 14.1066 6.86624 14.8647 6.25582C15.6229 5.64541 16.5669 5.31251 17.5402 5.31234C17.6492 5.31234 17.749 5.32148 17.8496 5.32781C18.4436 4.45761 19.3378 3.8373 20.361 3.58584C21.3841 3.33437 22.4641 3.46944 23.3937 3.96516C24.1909 3.43606 25.1431 3.19097 26.0967 3.26942C27.0503 3.34787 27.9496 3.7453 28.6496 4.39758C28.9755 4.31765 29.3097 4.27659 29.6452 4.27523C31.3728 4.27523 32.8669 5.31516 33.5342 6.80438C34.5962 7.12594 35.4912 7.84839 36.0296 8.81861C36.568 9.78884 36.7075 10.9306 36.4184 12.0019C36.9857 12.7455 37.293 13.6548 37.2931 14.5901L37.2903 14.5922Z" fill="#009EFF"/>
</svg>
