<svg xmlns="http://www.w3.org/2000/svg" width="331.38" height="179.874" viewBox="0 0 331.38 179.874"><defs><style>.a{fill:#2e186a;}.b{fill:#100a39;}.c{fill:#ff628d;}.d{fill:#fff;}</style></defs><g transform="translate(0 0)"><g transform="translate(0 0)"><path class="a" d="M29.206,0a.689.689,0,0,1,.041,1.376H7.175a5.71,5.71,0,0,0-5.8,5.647.69.69,0,0,1-1.38,0A7.085,7.085,0,0,1,7.056,0H29.206Z" transform="translate(82.902 16.618)"/><g transform="translate(90.606 0)"><g transform="translate(17.569)"><g transform="translate(0)"><path class="b" d="M8.008,1.869A2.628,2.628,0,0,1,11.164.077l.067.017,60,17.469a.689.689,0,0,1,.5.62V35.946a.69.69,0,0,1-1.379.04V18.741L10.857,1.42a1.247,1.247,0,0,0-1.509.788l-.016.049L1.352,29.528a.69.69,0,0,1-1.335-.347l.01-.039Z" transform="translate(0)"/><path class="b" d="M12.676.5a.69.69,0,0,1,.816-.478l.039.01L63.549,14.6a.689.689,0,0,1-.347,1.332l-.039-.01L13.773,1.533l-.032.079a6.787,6.787,0,0,1-7.6,4L6.081,5.6,1.352,21.748a.69.69,0,0,1-.817.478L.5,22.216A.689.689,0,0,1,.018,21.4l.01-.039,4.921-16.8a.69.69,0,0,1,.88-.46l.049.017L6,4.163l.074.021A5.4,5.4,0,0,0,12.65.58Z" transform="translate(5.749 8.331)"/></g></g><g transform="translate(7.635 28.271)"><g transform="translate(0 0)"><path class="b" d="M3.475,2.358A2.58,2.58,0,0,1,6.225.005L6.293.01,78.64,6.369a.689.689,0,0,1,.628.645V38.572a.69.69,0,0,1-1.379.04V7.685L6.172,1.382A1.2,1.2,0,0,0,4.855,2.429l-.005.05L1.377,41.113A.69.69,0,0,1,0,41.03l0-.04Z" transform="translate(0 0)"/><path class="b" d="M10.42.627A.689.689,0,0,1,11.128,0l.04,0L71.144,5.351a.689.689,0,0,1-.082,1.374l-.04,0L11.7,1.433l0,.018A7.586,7.586,0,0,1,3.856,7.235l-.056,0L1.377,34.241a.689.689,0,0,1-.708.627l-.04,0A.689.689,0,0,1,0,34.159l0-.04L2.486,6.435a.689.689,0,0,1,.687-.627,1.118,1.118,0,0,1,.169.012l.069.01h.022l.03,0C7.029,6.145,10.134,3.794,10.42.627Z" transform="translate(6.692 6.917)"/></g></g><g transform="translate(0 67.83)"><path class="b" d="M34.035,0a.689.689,0,0,1,.041,1.376H.69A.689.689,0,0,1,.649,0H34.035Z" transform="translate(0.92 0.918)"/><ellipse class="b" cx="1.61" cy="1.607" rx="1.61" ry="1.607" transform="translate(0 0)"/></g></g><g transform="translate(111.303 50.591)"><path class="b" d="M9.429,0a4.838,4.838,0,0,1,4.829,4.74v77a.69.69,0,0,1-1.379.04V4.821A3.459,3.459,0,0,0,9.5,1.378H4.829A3.459,3.459,0,0,0,1.381,4.749V46.3A.69.69,0,0,1,0,46.341V4.821A4.837,4.837,0,0,1,4.749,0h4.68Z" transform="translate(13.798)"/><path class="b" d="M.69,0a.689.689,0,0,1,.689.648V64.32a3.459,3.459,0,0,0,3.378,3.443h8.188l0,0a.69.69,0,0,1,.579-.385h.041a.689.689,0,0,1,.689.648v.431a.689.689,0,0,1-.649.687H4.829A4.838,4.838,0,0,1,0,64.4V.689A.689.689,0,0,1,.69,0Z" transform="translate(13.798 60.119)"/><path class="b" d="M46.913,0A.689.689,0,0,1,47.6.648V128.571a.689.689,0,0,1-.649.687H.69a.689.689,0,0,1-.041-1.376H46.223V1.377H.69A.689.689,0,0,1,0,.729V.689A.689.689,0,0,1,.649,0H46.913Z" transform="translate(22.721 0.023)"/><g transform="translate(7.129 8.149)"><path class="b" d="M7.313,0a.689.689,0,0,1,.041,1.376H.69A.689.689,0,0,1,.649,0H7.313Z"/><path class="b" d="M7.313,0a.689.689,0,0,1,.041,1.376H.69A.689.689,0,0,1,.649,0H7.313Z" transform="translate(0 4.958)"/><path class="b" d="M7.313,0a.689.689,0,0,1,.041,1.376H.69A.689.689,0,0,1,.649,0H7.313Z" transform="translate(0 14.898)"/><path class="b" d="M7.313,0a.689.689,0,0,1,.041,1.376H.69A.689.689,0,0,1,.649,0H7.313Z" transform="translate(0 19.856)"/><path class="b" d="M7.313,0a.689.689,0,0,1,.041,1.376H.69A.689.689,0,0,1,.649,0H7.313Z" transform="translate(0 24.814)"/><path class="b" d="M7.313,0a.689.689,0,0,1,.041,1.376H.69A.689.689,0,0,1,.649,0H7.313Z" transform="translate(0 29.796)"/><path class="b" d="M7.313,0a.689.689,0,0,1,.041,1.376H.69A.689.689,0,0,1,.649,0H7.313Z" transform="translate(0 34.754)"/><path class="b" d="M7.313,0a.689.689,0,0,1,.041,1.376H.69A.689.689,0,0,1,.649,0H7.313Z" transform="translate(0 54.633)"/><path class="b" d="M7.313,0a.689.689,0,0,1,.041,1.376H.69A.689.689,0,0,1,.649,0H7.313Z" transform="translate(0 59.591)"/><path class="b" d="M7.313,0a.689.689,0,0,1,.041,1.376H.69A.689.689,0,0,1,.649,0H7.313Z" transform="translate(0 64.549)"/><path class="b" d="M7.313,0a.689.689,0,0,1,.041,1.376H.69A.689.689,0,0,1,.649,0H7.313Z" transform="translate(0 69.531)"/><path class="b" d="M7.313,0a.689.689,0,0,1,.041,1.376H.69A.689.689,0,0,1,.649,0H7.313Z" transform="translate(0 74.489)"/><path class="b" d="M7.313,0a.689.689,0,0,1,.041,1.376H.69A.689.689,0,0,1,.649,0H7.313Z" transform="translate(0 84.428)"/><path class="b" d="M7.313,0a.689.689,0,0,1,.041,1.376H.69A.689.689,0,0,1,.649,0H7.313Z" transform="translate(0 89.387)"/><path class="b" d="M7.313,0a.689.689,0,0,1,.041,1.376H.69A.689.689,0,0,1,.649,0H7.313Z" transform="translate(0 94.345)"/><path class="b" d="M7.313,0a.689.689,0,0,1,.041,1.376H.69A.689.689,0,0,1,.649,0H7.313Z" transform="translate(0 99.326)"/><path class="b" d="M7.313,0a.689.689,0,0,1,.041,1.376H.69A.689.689,0,0,1,.649,0H7.313Z" transform="translate(0 104.284)"/><path class="b" d="M7.313,0a.689.689,0,0,1,.041,1.376H.69A.689.689,0,0,1,.649,0H7.313Z" transform="translate(0 109.243)"/></g><g transform="translate(0 83.809)"><path class="c" d="M27.366.574A22.936,22.936,0,0,0,22.307,0a22.266,22.266,0,1,0,0,44.533,22.936,22.936,0,0,0,5.059-.574Z" transform="translate(0 0)"/></g><g transform="translate(36.105 16.275)"><g transform="translate(6.324 0)"><path class="b" d="M23.111,0a.689.689,0,0,1,.041,1.376H5.059c-2.029,0-3.637,1.314-3.679,2.876V18.2H23.066a.689.689,0,0,1,.689.648v.04a.689.689,0,0,1-.649.687H.69A.689.689,0,0,1,0,18.932V4.316C0,1.93,2.245.039,4.974,0H23.111Z"/><rect class="c" width="21.709" height="4.132" transform="translate(1.403 6.932)"/></g><g transform="translate(6.324 46.782)"><path class="b" d="M23.111,0a.689.689,0,0,1,.041,1.376H5.059c-2.029,0-3.637,1.314-3.679,2.876V18.2H23.066a.689.689,0,0,1,.689.648v.04a.689.689,0,0,1-.649.687H.69A.689.689,0,0,1,0,18.932V4.316C0,1.93,2.245.039,4.974,0H23.111Z" transform="translate(0 0)"/><rect class="c" width="21.709" height="4.132" transform="translate(1.403 6.932)"/></g><g transform="translate(0 17.262)"><path class="b" d="M28.792,0a.689.689,0,0,1,.041,1.376H.69A.689.689,0,0,1,.649,0H28.792Z" transform="translate(0.92 0.918)"/><ellipse class="b" cx="1.61" cy="1.607" rx="1.61" ry="1.607" transform="translate(0 0)"/></g><g transform="translate(0 64.044)"><path class="b" d="M28.792,0a.689.689,0,0,1,.041,1.376H.69A.689.689,0,0,1,.649,0H28.792Z" transform="translate(0.92 0.918)"/><ellipse class="b" cx="1.61" cy="1.607" rx="1.61" ry="1.607" transform="translate(0 0)"/></g></g><path class="b" d="M-747.347-7952.713h-2.065v-2.243h-7.208v-2.973l7.208-3.531v-5.142h-7.208v-2.21h7.208v-2.287h2.065v2.287h1.992v-2.287h2.051v2.287h3.191v2.189c-.519.014-1.124.021-1.8.021H-743.3v2.139l3.191-1.574v2.3l-3.191,1.586v4.981h3.191v2.21H-743.3v2.242h-2.051v-2.243h-1.992v2.243Zm-2.065-6.4h0l-2.843,1.407a13.259,13.259,0,0,1-1.288.57v.074a24.335,24.335,0,0,1,2.841-.1h1.29v-1.949Zm4.057-2.022h0l-1.992,1v2.975h1.992v-3.971Zm-1.993-5.463v4.117l1.992-.982v-3.135Z" transform="translate(768 8067)"/><path class="d" d="M.5,0V46.438" transform="translate(26.866 81.743)"/><path class="b" d="M.69,0a.689.689,0,0,1,.689.648V47.127A.69.69,0,0,1,0,47.167V.689A.689.689,0,0,1,.69,0Z" transform="translate(26.676 81.054)"/></g><path class="b" d="M20.447,162.521H4.6a4.549,4.549,0,0,1-1.786-.362,4.64,4.64,0,0,1-2.451-2.446A4.527,4.527,0,0,1,0,157.93V4.591A4.527,4.527,0,0,1,.363,2.808,4.64,4.64,0,0,1,2.813.362,4.549,4.549,0,0,1,4.6,0H22.006a7.511,7.511,0,0,0-3.994,1.349,5.8,5.8,0,0,0-1.5,1.46,3.151,3.151,0,0,0-.6,1.783V75.063h41.3a9.19,9.19,0,0,1,9.222,9.205V89.5a9.208,9.208,0,0,1-9.222,9.205h-41.3V157.93a4.527,4.527,0,0,0,.363,1.783,4.64,4.64,0,0,0,2.451,2.446,4.548,4.548,0,0,0,1.72.362ZM55.4,81.261a5.46,5.46,0,0,0-2.143.435,5.568,5.568,0,0,0-2.941,2.935,5.472,5.472,0,0,0,0,4.278,5.568,5.568,0,0,0,2.941,2.935,5.507,5.507,0,0,0,7.227-7.214A5.568,5.568,0,0,0,57.542,81.7,5.459,5.459,0,0,0,55.4,81.261Z" transform="translate(68.277 16.641)"/><g transform="translate(175.233 16.641)"><path class="b" d="M10.808,162.522H4.6a4.549,4.549,0,0,1-1.786-.362,4.64,4.64,0,0,1-2.451-2.446A4.527,4.527,0,0,1,0,157.93V4.591A4.527,4.527,0,0,1,.363,2.808,4.64,4.64,0,0,1,2.813.362,4.549,4.549,0,0,1,4.6,0H87.387a4.594,4.594,0,0,1,4.6,4.591V157.93a4.527,4.527,0,0,1-.363,1.783,4.64,4.64,0,0,1-2.451,2.446,4.549,4.549,0,0,1-1.786.362H14.6a.69.69,0,0,0-.69-.689,5.843,5.843,0,0,1-5.864-5.808V7.851A5.761,5.761,0,0,1,9.765,3.742a5.875,5.875,0,0,1,4.148-1.7.689.689,0,1,0,0-1.377,7.259,7.259,0,0,0-6.675,4.4,7.063,7.063,0,0,0-.569,2.788V156.025a7.122,7.122,0,0,0,1.156,3.894,7.237,7.237,0,0,0,2.984,2.6ZM52.662,145.4a5.415,5.415,0,1,0,2.109.427A5.38,5.38,0,0,0,52.662,145.4ZM24.951,10.651A6.536,6.536,0,0,0,18.4,17.193V133.231a6.542,6.542,0,0,0,6.554,6.542H77.406a6.536,6.536,0,0,0,6.554-6.542V17.193a6.542,6.542,0,0,0-6.554-6.542ZM3.22,73.938a1.311,1.311,0,0,0-1.311,1.308V96.2a1.311,1.311,0,0,0,2.622,0V75.246A1.311,1.311,0,0,0,3.22,73.938ZM39.554,4.361a1.6,1.6,0,1,0,1.141.468A1.6,1.6,0,0,0,39.554,4.361Zm5.749.23a1.377,1.377,0,1,0,0,2.755H62.091a1.377,1.377,0,1,0,0-2.755Z" transform="translate(0 0)"/><path class="c" d="M18.627,42.73A18.7,18.7,0,0,1,1.468,31.361,18.5,18.5,0,0,1,3.183,13.755a18.724,18.724,0,0,1,8.2-6.746,18.531,18.531,0,0,1,3.5-1.087,18.626,18.626,0,0,1,15.434,3.73l5.381-8.631A2.191,2.191,0,0,1,38.7.332a2.158,2.158,0,0,1,.977,1.374,2.091,2.091,0,0,1-.287,1.61l-5.956,9.549A18.746,18.746,0,0,1,36.243,18.1a18.484,18.484,0,0,1-2.178,16.422,18.758,18.758,0,0,1-8.2,6.746,18.515,18.515,0,0,1-7.237,1.466ZM18.65,6.943a17.091,17.091,0,0,0-6.7,1.357,17.349,17.349,0,0,0-9.186,9.17,17.141,17.141,0,0,0,0,13.379,17.251,17.251,0,0,0,1.594,2.924,17.366,17.366,0,0,0,7.593,6.246,17.228,17.228,0,0,0,20.73-25.891L21.87,31.482a2.13,2.13,0,0,1-1.748,1.033H20.03a2.18,2.18,0,0,1-1.748-.872L10.716,21.612a2.183,2.183,0,0,1,3.5-2.617L19.846,26.5,29.6,10.869A17.2,17.2,0,0,0,18.65,6.943Z" transform="translate(31.597 55.081)"/></g><path class="b" d="M330.69,0a.689.689,0,0,1,.041,1.376H.69A.689.689,0,0,1,.649,0H330.69Z" transform="translate(0 178.473)"/></g></g></svg>