<svg width="45" height="45" viewBox="0 0 45 45" fill="none" xmlns="http://www.w3.org/2000/svg">
<path d="M35.5631 39.8103C35.5631 40.3679 35.3416 40.9026 34.9473 41.2969C34.5531 41.6912 34.0183 41.9127 33.4607 41.9127C32.9032 41.9127 32.3684 41.6912 31.9742 41.2969C31.5799 40.9026 31.3584 40.3679 31.3584 39.8103V37.9766H35.5624L35.5631 39.8103Z" fill="#009EFF"/>
<path d="M30.0165 44.8046H24.0378L24.047 41.8543H22.0438L22.0409 44.8046H16.051V37.9766H30.0165V44.8046Z" fill="#009EFF"/>
<path d="M14.6615 39.8103C14.6615 40.3678 14.44 40.9024 14.0458 41.2966C13.6516 41.6908 13.117 41.9123 12.5595 41.9123C12.002 41.9123 11.4674 41.6908 11.0732 41.2966C10.679 40.9024 10.4575 40.3678 10.4575 39.8103V37.9766H14.6615V39.8103Z" fill="#009EFF"/>
<path d="M23.0125 0.494141C23.7257 0.494233 24.4319 0.634828 25.0908 0.907896C25.7497 1.18096 26.3483 1.58116 26.8525 2.08561C27.3567 2.59007 27.7566 3.18891 28.0293 3.84794C28.302 4.50696 28.4423 5.21326 28.442 5.92649C28.4422 6.63962 28.3019 7.34581 28.0291 8.00471C27.7563 8.66361 27.3564 9.26232 26.8522 9.76665C26.348 10.271 25.7494 10.671 25.0906 10.944C24.4317 11.2169 23.7256 11.3574 23.0125 11.3574C21.5719 11.3574 20.1903 10.7852 19.1717 9.76653C18.1531 8.7479 17.5808 7.36634 17.5808 5.92578C17.5808 4.48522 18.1531 3.10366 19.1717 2.08503C20.1903 1.0664 21.5719 0.494141 23.0125 0.494141Z" fill="#009EFF"/>
<path d="M38.4588 35.8602H7.56348V17.8047H38.4588V35.8602ZM33.6332 19.296H12.5064V34.3935H33.6332V19.296Z" fill="#009EFF"/>
<path d="M24.0379 28.2205V29.5459H27.9072C28.0682 29.5459 28.3045 29.6907 28.3045 29.941C28.3045 32.198 28.0218 33.2612 26.8328 33.2612C25.5996 33.2612 25.3464 30.5914 24.0379 30.4156V32.9708H21.97V30.4107C20.5968 30.5148 20.3753 33.2612 19.0935 33.2612C17.9053 33.2612 17.6866 32.198 17.6866 29.941C17.6866 29.6907 17.9235 29.5459 18.0839 29.5459H21.9693V28.2205H17.9467C17.8359 28.2205 17.7296 28.1764 17.6512 28.098C17.5728 28.0196 17.5287 27.9133 17.5287 27.8025C17.5287 27.6916 17.5728 27.5853 17.6512 27.5069C17.7296 27.4285 17.8359 27.3845 17.9467 27.3845H21.9693V26.0591H17.4419C17.3309 26.0591 17.2244 26.0149 17.1458 25.9364C17.0673 25.8579 17.0232 25.7514 17.0232 25.6403C17.0232 25.5293 17.0673 25.4228 17.1458 25.3443C17.2244 25.2658 17.3309 25.2216 17.4419 25.2216H21.9693V23.8977H17.7196C17.6646 23.8977 17.61 23.887 17.5592 23.8659C17.5083 23.8449 17.462 23.8141 17.4231 23.7751C17.3842 23.7362 17.3533 23.69 17.3323 23.6391C17.3113 23.5882 17.3005 23.5337 17.3006 23.4786C17.3006 23.2494 17.4883 23.0588 17.7196 23.0588H21.9693V21.7355H18.64C18.5287 21.7355 18.4219 21.6913 18.3432 21.6126C18.2645 21.5339 18.2203 21.4271 18.2203 21.3158C18.2203 21.2045 18.2645 21.0977 18.3432 21.019C18.4219 20.9402 18.5287 20.896 18.64 20.896H21.9693V20.1641H24.0372V20.896H27.3665C27.4778 20.896 27.5846 20.9402 27.6633 21.019C27.7421 21.0977 27.7863 21.2045 27.7863 21.3158C27.7863 21.4271 27.7421 21.5339 27.6633 21.6126C27.5846 21.6913 27.4778 21.7355 27.3665 21.7355H24.0372V23.0581H28.2996C28.4107 23.0587 28.5172 23.1031 28.5958 23.1817C28.6744 23.2603 28.7188 23.3667 28.7193 23.4779C28.7194 23.533 28.7086 23.5876 28.6875 23.6385C28.6665 23.6895 28.6355 23.7357 28.5965 23.7747C28.5575 23.8136 28.5112 23.8445 28.4603 23.8654C28.4093 23.8864 28.3547 23.8971 28.2996 23.897H24.0372V25.2209H28.5787C28.6897 25.2209 28.7962 25.2651 28.8748 25.3436C28.9533 25.4221 28.9974 25.5286 28.9974 25.6396C28.9974 25.7507 28.9533 25.8572 28.8748 25.9357C28.7962 26.0142 28.6897 26.0584 28.5787 26.0584H24.0372V27.3837H28.0605C28.1168 27.3814 28.1731 27.3905 28.2258 27.4105C28.2785 27.4305 28.3267 27.4609 28.3673 27.4999C28.408 27.539 28.4404 27.5858 28.4625 27.6377C28.4846 27.6896 28.496 27.7454 28.496 27.8018C28.496 27.8581 28.4846 27.9139 28.4625 27.9658C28.4404 28.0177 28.408 28.0645 28.3673 28.1036C28.3267 28.1426 28.2785 28.173 28.2258 28.193C28.1731 28.213 28.1168 28.2221 28.0605 28.2198L24.0372 28.2205H24.0379Z" fill="#009EFF"/>
<path d="M29.3406 12.6875H16.8622C14.6045 12.6875 12.5155 13.892 11.3406 15.6884H34.6801C34.1216 14.7728 33.3373 14.016 32.4023 13.4905C31.4674 12.965 30.4131 12.6885 29.3406 12.6875Z" fill="#009EFF"/>
</svg>
