<svg width="40" height="45" viewBox="0 0 40 45" fill="none" xmlns="http://www.w3.org/2000/svg">
<g clip-path="url(#clip0)">
<path d="M19.6875 45C18.252 45 16.897 44.8022 15.6226 44.4067C14.3481 44.0112 13.1616 43.396 12.063 42.561C10.9644 41.7261 10.0854 40.5542 9.42627 39.0454C8.76709 37.5366 8.4375 35.7715 8.4375 33.75C8.4375 32.8125 8.67188 31.9263 9.14062 31.0913C9.60938 30.2563 10.1953 29.5093 10.8984 28.8501C11.6016 28.1909 12.3193 27.5537 13.0518 26.9385C13.7842 26.3232 14.4873 25.6494 15.1611 24.917C15.835 24.1846 16.3037 23.4521 16.5674 22.7197C13.2568 23.1885 10.6055 24.4336 8.61328 26.4551C6.62109 28.4766 5.625 31.2891 5.625 34.8926C5.625 37.5 6.06445 39.9316 6.94336 42.1875H0.834961C0.27832 39.873 0 37.5 0 35.0684C0 31.4941 0.666504 28.3887 1.99951 25.752C3.33252 23.1152 5.15625 21.0498 7.4707 19.5557C6.91406 19.0576 6.37207 18.5596 5.84473 18.0615C4.14551 16.3916 2.66602 14.5752 1.40625 12.6123L5.71289 8.4375C6.67969 10.5762 8.08594 12.5391 9.93164 14.3262C10.8398 15.2051 11.7261 15.8276 12.5903 16.1938C13.4546 16.5601 14.458 16.7725 15.6006 16.8311C15.3076 16.3623 14.7217 15.5933 13.8428 14.5239C12.9639 13.4546 12.312 12.4658 11.8872 11.5576C11.4624 10.6494 11.25 9.60938 11.25 8.4375C11.25 7.08984 11.5942 5.8667 12.2827 4.76807C12.9712 3.66943 13.8721 2.7832 14.9854 2.10938C16.0986 1.43555 17.3071 0.915527 18.6108 0.549316C19.9146 0.183105 21.2109 0 22.5 0C24.8145 0 27.0044 0.52002 29.0698 1.56006C31.1353 2.6001 32.9224 4.03564 34.4312 5.8667C35.9399 7.69775 37.1411 9.93164 38.0347 12.5684C38.9282 15.2051 39.375 18.0469 39.375 21.0938C39.375 24.1113 38.7817 27.0996 37.5952 30.0586C36.4087 33.0176 34.8853 35.5737 33.0249 37.7271C31.1646 39.8804 29.0479 41.6309 26.6748 42.9785C24.3018 44.3262 21.9727 45 19.6875 45Z" fill="#009EFF"/>
</g>
<defs>
<clipPath id="clip0">
<rect width="39.375" height="45" fill="white"/>
</clipPath>
</defs>
</svg>
